<svg width="51" height="50" viewBox="0 0 51 50" fill="none" xmlns="http://www.w3.org/2000/svg">
<g id="clock-solid 1" clip-path="url(#clip0_352_23)">
<path id="Vector" d="M25.4775 0C32.108 0 38.4668 2.63392 43.1552 7.32233C47.8436 12.0107 50.4775 18.3696 50.4775 25C50.4775 31.6304 47.8436 37.9893 43.1552 42.6777C38.4668 47.3661 32.108 50 25.4775 50C18.8471 50 12.4883 47.3661 7.79987 42.6777C3.11146 37.9893 0.477539 31.6304 0.477539 25C0.477539 18.3696 3.11146 12.0107 7.79987 7.32233C12.4883 2.63392 18.8471 0 25.4775 0ZM23.1338 11.7188V25C23.1338 25.7812 23.5244 26.5137 24.1787 26.9531L33.5537 33.2031C34.6279 33.9258 36.083 33.6328 36.8057 32.5488C37.5283 31.4648 37.2354 30.0195 36.1514 29.2969L27.8213 23.75V11.7188C27.8213 10.4199 26.7764 9.375 25.4775 9.375C24.1787 9.375 23.1338 10.4199 23.1338 11.7188Z" fill="#FF6B01"/>
</g>
<defs>
<clipPath id="clip0_352_23">
<rect width="50" height="50" fill="white" transform="translate(0.477539)"/>
</clipPath>
</defs>
</svg>
