<svg width="102" height="79" viewBox="0 0 102 79" fill="none" xmlns="http://www.w3.org/2000/svg">
<path id="Primary" d="M50.9911 0C36.6841 0 25.2278 6.5161 16.8879 14.2717C8.60108 21.9564 3.05885 31.164 0.438243 37.4853C-0.146081 38.8841 -0.146081 40.4423 0.438243 41.8412C3.05885 48.1625 8.60108 57.37 16.8879 65.0548C25.2278 72.8103 36.6841 79.3264 50.9911 79.3264C65.2982 79.3264 76.7545 72.8103 85.0944 65.0548C93.3812 57.3523 98.9234 48.1625 101.562 41.8412C102.146 40.4423 102.146 38.8841 101.562 37.4853C98.9234 31.164 93.3812 21.9564 85.0944 14.2717C76.7545 6.5161 65.2982 0 50.9911 0ZM25.4934 39.6632C25.4934 32.9008 28.1797 26.4153 32.9615 21.6336C37.7433 16.8518 44.2287 14.1654 50.9911 14.1654C57.7536 14.1654 64.239 16.8518 69.0208 21.6336C73.8026 26.4153 76.4889 32.9008 76.4889 39.6632C76.4889 46.4257 73.8026 52.9111 69.0208 57.6929C64.239 62.4746 57.7536 65.161 50.9911 65.161C44.2287 65.161 37.7433 62.4746 32.9615 57.6929C28.1797 52.9111 25.4934 46.4257 25.4934 39.6632ZM50.9911 28.3309C50.9911 34.5814 45.9093 39.6632 39.6588 39.6632C38.4016 39.6632 37.1976 39.4507 36.0643 39.0789C35.0904 38.7602 33.9572 39.3622 33.9926 40.3892C34.0457 41.611 34.2228 42.8327 34.5592 44.0545C36.9851 53.1204 46.3166 58.5033 55.3824 56.0774C64.4483 53.6516 69.8312 44.3201 67.4053 35.2542C65.4399 27.9059 58.9415 22.9657 51.7171 22.6647C50.6901 22.6293 50.0881 23.7448 50.4068 24.7364C50.7787 25.8696 50.9911 27.0737 50.9911 28.3309Z" fill="#3C0C12"/>
</svg>
