<svg width="108" height="88" viewBox="0 0 108 88" fill="none" xmlns="http://www.w3.org/2000/svg">
<g id="Primary" filter="url(#filter0_d_417_30)">
<path d="M90.1145 38.8586V39.3929L101.352 28.1089C104.883 24.5634 104.883 18.8323 101.352 15.2869L88.7602 2.65911C85.2293 -0.886371 79.522 -0.886371 75.9911 2.65911L69.526 9.15107C69.0907 9.1025 68.6393 9.07012 68.1878 9.07012H50.1306C44.1491 9.07012 39.2318 13.6032 38.5869 19.4313H38.5224V38.8586C38.5224 42.4365 41.4083 45.3344 44.9714 45.3344C48.5345 45.3344 51.4204 42.4365 51.4204 38.8586V27.2023V27.1861V24.612H54H75.9266C75.9266 24.612 75.9266 24.612 75.9428 24.612H77.2164C84.3426 24.612 90.1145 30.4078 90.1145 37.5635V38.8586ZM56.5796 29.7926V38.8586C56.5796 45.302 51.3882 50.515 44.9714 50.515C38.5546 50.515 33.3632 45.302 33.3632 38.8586V19.658C27.5752 20.6617 22.7545 24.8872 21.11 30.6992L18.4498 40.0243L6.64813 51.8749C3.11729 55.4204 3.11729 61.1515 6.64813 64.697L19.2398 77.3409C22.7707 80.8864 28.478 80.8864 32.0089 77.3409L38.0871 71.2375C38.2322 71.2375 38.3773 71.2537 38.5224 71.2537H64.3184C68.5909 71.2537 72.0572 67.7729 72.0572 63.4827C72.0572 62.5761 71.896 61.7019 71.6219 60.8924H72.0572C76.3297 60.8924 79.7961 57.4117 79.7961 53.1215C79.7961 51.0493 78.9899 49.1713 77.6679 47.779C81.8114 46.9695 84.9391 43.3107 84.9553 38.9072V38.8425C84.9391 33.8561 80.9085 29.8088 75.9266 29.8088H56.5796V29.7926Z" fill="white"/>
</g>
<defs>
<filter id="filter0_d_417_30" x="0" y="0" width="108" height="88" filterUnits="userSpaceOnUse" color-interpolation-filters="sRGB">
<feFlood flood-opacity="0" result="BackgroundImageFix"/>
<feColorMatrix in="SourceAlpha" type="matrix" values="0 0 0 0 0 0 0 0 0 0 0 0 0 0 0 0 0 0 127 0" result="hardAlpha"/>
<feOffset dy="4"/>
<feGaussianBlur stdDeviation="2"/>
<feComposite in2="hardAlpha" operator="out"/>
<feColorMatrix type="matrix" values="0 0 0 0 0 0 0 0 0 0 0 0 0 0 0 0 0 0 0.25 0"/>
<feBlend mode="normal" in2="BackgroundImageFix" result="effect1_dropShadow_417_30"/>
<feBlend mode="normal" in="SourceGraphic" in2="effect1_dropShadow_417_30" result="shape"/>
</filter>
</defs>
</svg>
