<svg width="49" height="50" viewBox="0 0 49 50" fill="none" xmlns="http://www.w3.org/2000/svg">
<path id="Vector" d="M33.7365 5.35714C33.7365 2.39955 36.136 0 39.0936 0H42.665C45.6226 0 48.0222 2.39955 48.0222 5.35714V44.6429C48.0222 47.6004 45.6226 50 42.665 50H39.0936C36.136 50 33.7365 47.6004 33.7365 44.6429V5.35714ZM0.477539 26.7857C0.477539 23.8281 2.87709 21.4286 5.83468 21.4286H9.40611C12.3637 21.4286 14.7633 23.8281 14.7633 26.7857V44.6429C14.7633 47.6004 12.3637 50 9.40611 50H5.83468C2.87709 50 0.477539 47.6004 0.477539 44.6429V26.7857ZM22.2409 7.14286H25.8124C28.7699 7.14286 31.1695 9.54241 31.1695 12.5V44.6429C31.1695 47.6004 28.7699 50 25.8124 50H22.2409C19.2833 50 16.8838 47.6004 16.8838 44.6429V12.5C16.8838 9.54241 19.2833 7.14286 22.2409 7.14286Z" fill="#FF6B01"/>
</svg>
