<svg width="81" height="80" viewBox="0 0 81 80" fill="none" xmlns="http://www.w3.org/2000/svg">
<path id="Primary" d="M0.973938 5.96875C0.552063 5.34375 0.333313 4.59375 0.333313 3.84375C0.333313 1.71875 2.05206 0 4.17706 0H21.2552C23.0052 0 24.6458 0.921875 25.5364 2.42188L36.2396 20.25C28.7083 21.2031 21.9739 24.7188 16.9583 29.9219L0.973938 5.96875ZM79.6771 5.96875L63.7083 29.9219C58.6927 24.7188 51.9583 21.2031 44.4271 20.25L55.1302 2.42188C56.0364 0.921875 57.6614 0 59.4114 0H76.4896C78.6146 0 80.3333 1.71875 80.3333 3.84375C80.3333 4.59375 80.1146 5.34375 79.6927 5.96875H79.6771ZM12.8333 52.5C12.8333 45.2065 15.7306 38.2118 20.8879 33.0546C26.0451 27.8973 33.0399 25 40.3333 25C47.6268 25 54.6215 27.8973 59.7788 33.0546C64.936 38.2118 67.8333 45.2065 67.8333 52.5C67.8333 59.7935 64.936 66.7882 59.7788 71.9454C54.6215 77.1027 47.6268 80 40.3333 80C33.0399 80 26.0451 77.1027 20.8879 71.9454C15.7306 66.7882 12.8333 59.7935 12.8333 52.5ZM41.6458 37.6719C41.1146 36.5781 39.5677 36.5781 39.0208 37.6719L35.5208 44.7656C35.3021 45.2031 34.8958 45.5 34.4271 45.5625L26.5833 46.7031C25.3802 46.875 24.9114 48.3438 25.7708 49.2031L31.4427 54.7344C31.7864 55.0781 31.9427 55.5469 31.8646 56.0312L30.5208 63.8281C30.3177 65.0156 31.5677 65.9375 32.6458 65.375L39.6458 61.6875C40.0677 61.4688 40.5833 61.4688 41.0052 61.6875L48.0052 65.375C49.0833 65.9375 50.3333 65.0312 50.1302 63.8281L48.7864 56.0312C48.7083 55.5625 48.8646 55.0781 49.2083 54.7344L54.8802 49.2031C55.7552 48.3594 55.2708 46.8906 54.0677 46.7031L46.2396 45.5625C45.7708 45.5 45.3489 45.1875 45.1458 44.7656L41.6458 37.6719Z" fill="#3C0C12"/>
</svg>
