<svg width="64" height="50" viewBox="0 0 64 50" fill="none" xmlns="http://www.w3.org/2000/svg">
<g id="mountain-sun-solid 1" clip-path="url(#clip0_352_8)">
<path id="Vector" d="M55.665 15.625C57.737 15.625 59.7242 14.8019 61.1893 13.3368C62.6544 11.8716 63.4775 9.8845 63.4775 7.8125C63.4775 5.7405 62.6544 3.75336 61.1893 2.28823C59.7242 0.8231 57.737 0 55.665 0C53.593 0 51.6059 0.8231 50.1408 2.28823C48.6756 3.75336 47.8525 5.7405 47.8525 7.8125C47.8525 9.8845 48.6756 11.8716 50.1408 13.3368C51.6059 14.8019 53.593 15.625 55.665 15.625ZM6.43652 50H38.1943H45.5186H57.5107C60.8115 50 63.4775 47.3242 63.4775 44.0332C63.4775 42.9395 63.1748 41.8652 62.6084 40.9277L49.7178 19.8047C49.3174 19.1504 48.6143 18.75 47.8525 18.75C47.0908 18.75 46.3877 19.1504 45.9873 19.7949L41.2803 27.5098L28.9853 7.91016C28.3408 6.875 27.1982 6.25 25.9775 6.25C24.7568 6.25 23.624 6.875 22.9697 7.91016L1.81738 41.6406C1.27051 42.5098 0.977539 43.5156 0.977539 44.541C0.977539 47.5586 3.41895 50 6.43652 50Z" fill="#FF6B01"/>
</g>
<defs>
<clipPath id="clip0_352_8">
<rect width="62.5" height="50" fill="white" transform="translate(0.977539)"/>
</clipPath>
</defs>
</svg>
