<svg width="60" height="80" viewBox="0 0 60 80" fill="none" xmlns="http://www.w3.org/2000/svg">
<path id="Primary" d="M30 0C23.4688 0 17.9062 4.17188 15.8594 10H10C4.48438 10 0 14.4844 0 20V70C0 75.5156 4.48438 80 10 80H50C55.5156 80 60 75.5156 60 70V20C60 14.4844 55.5156 10 50 10H44.1406C42.0938 4.17188 36.5312 0 30 0ZM30 10C31.3261 10 32.5979 10.5268 33.5355 11.4645C34.4732 12.4021 35 13.6739 35 15C35 16.3261 34.4732 17.5979 33.5355 18.5355C32.5979 19.4732 31.3261 20 30 20C28.6739 20 27.4021 19.4732 26.4645 18.5355C25.5268 17.5979 25 16.3261 25 15C25 13.6739 25.5268 12.4021 26.4645 11.4645C27.4021 10.5268 28.6739 10 30 10ZM20 40C20 37.3478 21.0536 34.8043 22.9289 32.9289C24.8043 31.0536 27.3478 30 30 30C32.6522 30 35.1957 31.0536 37.0711 32.9289C38.9464 34.8043 40 37.3478 40 40C40 42.6522 38.9464 45.1957 37.0711 47.0711C35.1957 48.9464 32.6522 50 30 50C27.3478 50 24.8043 48.9464 22.9289 47.0711C21.0536 45.1957 20 42.6522 20 40ZM12.5 67.5C12.5 60.5938 18.0938 55 25 55H35C41.9062 55 47.5 60.5938 47.5 67.5C47.5 68.875 46.375 70 45 70H15C13.625 70 12.5 68.875 12.5 67.5Z" fill="white"/>
</svg>
