<svg width="108" height="88" viewBox="0 0 108 88" fill="none" xmlns="http://www.w3.org/2000/svg">
<g id="plane-circle-check-solid 1" clip-path="url(#clip0_415_16)" filter="url(#filter0_d_415_16)">
<path id="Vector" d="M44 0C38.5312 0 34 9.29687 34 14.6406V27.8594L5.26562 44.2812C4.48438 44.7188 4 45.5625 4 46.4531V56.6875C4 58.3438 5.59375 59.5469 7.1875 59.0938L34 51.4375V62.5156L25 69.2656C24.375 69.7344 24 70.4844 24 71.2656V77.8281C24 79.0469 24.9844 80.0156 26.1875 80.0156C26.3906 80.0156 26.5938 79.9844 26.7969 79.9375L44 75L61.2031 79.9219C61.4062 79.9844 61.6094 80 61.8125 80C62.75 80 63.5469 79.4219 63.8594 78.5938C57.8281 73.5469 54 65.9688 54 57.5C54 48.0312 58.7812 39.6875 66.0469 34.75L54 27.8594V14.6406C54 9.29687 49.625 0 44 0ZM104 57.5C104 51.5326 101.629 45.8097 97.4099 41.5901C93.1903 37.3705 87.4674 35 81.5 35C75.5326 35 69.8097 37.3705 65.5901 41.5901C61.3705 45.8097 59 51.5326 59 57.5C59 63.4674 61.3705 69.1903 65.5901 73.4099C69.8097 77.6295 75.5326 80 81.5 80C87.4674 80 93.1903 77.6295 97.4099 73.4099C101.629 69.1903 104 63.4674 104 57.5ZM92.0156 50.7344C92.9844 51.7031 92.9844 53.2969 92.0156 54.2656L80.7656 65.5156C79.7969 66.4844 78.2031 66.4844 77.2344 65.5156L70.9844 59.2656C70.0156 58.2969 70.0156 56.7031 70.9844 55.7344C71.9531 54.7656 73.5469 54.7656 74.5156 55.7344L79 60.2188L88.4844 50.7344C89.4531 49.7656 91.0469 49.7656 92.0156 50.7344Z" fill="white"/>
</g>
<defs>
<filter id="filter0_d_415_16" x="0" y="0" width="108" height="88" filterUnits="userSpaceOnUse" color-interpolation-filters="sRGB">
<feFlood flood-opacity="0" result="BackgroundImageFix"/>
<feColorMatrix in="SourceAlpha" type="matrix" values="0 0 0 0 0 0 0 0 0 0 0 0 0 0 0 0 0 0 127 0" result="hardAlpha"/>
<feOffset dy="4"/>
<feGaussianBlur stdDeviation="2"/>
<feComposite in2="hardAlpha" operator="out"/>
<feColorMatrix type="matrix" values="0 0 0 0 0 0 0 0 0 0 0 0 0 0 0 0 0 0 0.25 0"/>
<feBlend mode="normal" in2="BackgroundImageFix" result="effect1_dropShadow_415_16"/>
<feBlend mode="normal" in="SourceGraphic" in2="effect1_dropShadow_415_16" result="shape"/>
</filter>
<clipPath id="clip0_415_16">
<rect width="100" height="80" fill="white" transform="translate(4)"/>
</clipPath>
</defs>
</svg>
