<svg width="17" height="16" viewBox="0 0 17 16" fill="none" xmlns="http://www.w3.org/2000/svg">
<path id="Vector" d="M9.45064 1.46515C9.29539 1.14292 8.9673 0.937866 8.60699 0.937866C8.24668 0.937866 7.92152 1.14292 7.76333 1.46515L5.87976 5.34069L1.6732 5.96172C1.32167 6.01445 1.02874 6.26051 0.92035 6.59739C0.811963 6.93427 0.899844 7.30629 1.15177 7.55529L4.20416 10.5755L3.48354 14.8435C3.42495 15.1951 3.57142 15.5524 3.86143 15.7604C4.15143 15.9684 4.53518 15.9948 4.85155 15.8278L8.60992 13.8212L12.3683 15.8278C12.6847 15.9948 13.0684 15.9713 13.3584 15.7604C13.6484 15.5495 13.7949 15.1951 13.7363 14.8435L13.0127 10.5755L16.0651 7.55529C16.3171 7.30629 16.4079 6.93427 16.2966 6.59739C16.1852 6.26051 15.8952 6.01445 15.5437 5.96172L11.3342 5.34069L9.45064 1.46515Z" fill="#FF6B01"/>
</svg>
