<svg width="81" height="80" viewBox="0 0 81 80" fill="none" xmlns="http://www.w3.org/2000/svg">
<path id="Primary" d="M70.6667 40C70.6667 36.0603 69.8907 32.1593 68.383 28.5195C66.8754 24.8797 64.6656 21.5726 61.8799 18.7868C59.0941 16.001 55.7869 13.7913 52.1472 12.2836C48.5074 10.776 44.6063 10 40.6667 10C36.727 10 32.8259 10.776 29.1862 12.2836C25.5464 13.7913 22.2392 16.001 19.4535 18.7868C16.6677 21.5726 14.4579 24.8797 12.9503 28.5195C11.4426 32.1593 10.6667 36.0603 10.6667 40C10.6667 43.9397 11.4426 47.8407 12.9503 51.4805C14.4579 55.1203 16.6677 58.4274 19.4535 61.2132C22.2392 63.999 25.5464 66.2087 29.1862 67.7164C32.8259 69.224 36.727 70 40.6667 70C44.6063 70 48.5074 69.224 52.1472 67.7164C55.7869 66.2087 59.0941 63.999 61.8799 61.2132C64.6656 58.4274 66.8754 55.1203 68.383 51.4805C69.8907 47.8407 70.6667 43.9397 70.6667 40ZM0.666656 40C0.666656 29.3913 4.88093 19.2172 12.3824 11.7157C19.8838 4.21427 30.058 0 40.6667 0C51.2753 0 61.4495 4.21427 68.9509 11.7157C76.4524 19.2172 80.6667 29.3913 80.6667 40C80.6667 50.6087 76.4524 60.7828 68.9509 68.2843C61.4495 75.7857 51.2753 80 40.6667 80C30.058 80 19.8838 75.7857 12.3824 68.2843C4.88093 60.7828 0.666656 50.6087 0.666656 40ZM40.6667 52.5C43.9819 52.5 47.1613 51.183 49.5055 48.8388C51.8497 46.4946 53.1667 43.3152 53.1667 40C53.1667 36.6848 51.8497 33.5054 49.5055 31.1612C47.1613 28.817 43.9819 27.5 40.6667 27.5C37.3515 27.5 34.172 28.817 31.8278 31.1612C29.4836 33.5054 28.1667 36.6848 28.1667 40C28.1667 43.3152 29.4836 46.4946 31.8278 48.8388C34.172 51.183 37.3515 52.5 40.6667 52.5ZM40.6667 17.5C46.634 17.5 52.357 19.8705 56.5766 24.0901C60.7961 28.3097 63.1667 34.0326 63.1667 40C63.1667 45.9674 60.7961 51.6903 56.5766 55.9099C52.357 60.1295 46.634 62.5 40.6667 62.5C34.6993 62.5 28.9763 60.1295 24.7568 55.9099C20.5372 51.6903 18.1667 45.9674 18.1667 40C18.1667 34.0326 20.5372 28.3097 24.7568 24.0901C28.9763 19.8705 34.6993 17.5 40.6667 17.5ZM35.6667 40C35.6667 38.6739 36.1934 37.4021 37.1311 36.4645C38.0688 35.5268 39.3406 35 40.6667 35C41.9927 35 43.2645 35.5268 44.2022 36.4645C45.1399 37.4021 45.6667 38.6739 45.6667 40C45.6667 41.3261 45.1399 42.5979 44.2022 43.5355C43.2645 44.4732 41.9927 45 40.6667 45C39.3406 45 38.0688 44.4732 37.1311 43.5355C36.1934 42.5979 35.6667 41.3261 35.6667 40Z" fill="#3C0C12"/>
</svg>
