<svg width="80" height="80" viewBox="0 0 80 80" fill="none" xmlns="http://www.w3.org/2000/svg">
<path id="Primary" d="M62.0699 14.9155C64.0478 14.9155 65.9447 14.1298 67.3433 12.7312C68.7419 11.3326 69.5276 9.43569 69.5276 7.45777C69.5276 5.47985 68.7419 3.58293 67.3433 2.18433C65.9447 0.785727 64.0478 0 62.0699 0C60.0919 0 58.195 0.785727 56.7964 2.18433C55.3978 3.58293 54.6121 5.47985 54.6121 7.45777C54.6121 9.43569 55.3978 11.3326 56.7964 12.7312C58.195 14.1298 60.0919 14.9155 62.0699 14.9155ZM48.9721 31.1517C49.1275 31.0896 49.2673 31.0274 49.4227 30.9653L46.797 40.8313C45.9269 44.1096 46.7814 47.6054 49.0809 50.1069L60.0656 62.0859L63.4837 75.774C64.1518 78.4309 66.8553 80.0623 69.5121 79.3942C72.1689 78.7261 73.8003 76.0226 73.1322 73.3658L69.5587 59.0562C69.2635 57.8443 68.6575 56.7412 67.8186 55.8245L60.1277 47.4345L63.1264 37.2578L64.6179 40.8313C65.3016 42.4782 66.5601 43.8299 68.1604 44.6379L72.3087 46.7043C74.7636 47.9317 77.7467 46.9373 78.9741 44.4825C80.2016 42.0276 79.2072 39.0445 76.7523 37.8171L73.4119 36.1546L71.0347 30.437C68.3624 24.0513 62.1165 19.8874 55.187 19.8874C51.6445 19.8874 48.1487 20.6332 44.917 22.0626L43.674 22.6064C38.5623 24.8748 34.647 29.1941 32.8913 34.4922L32.4874 35.7041C31.6173 38.3143 33.0312 41.1265 35.6258 41.9966C38.2205 42.8666 41.0483 41.4528 41.9183 38.8581L42.3223 37.6462C43.2079 34.9894 45.1656 32.8453 47.7136 31.7111L48.9566 31.1673L48.9721 31.1517ZM44.311 52.1422L40.4268 61.8373L31.1978 71.0663C29.2557 73.0085 29.2557 76.1625 31.1978 78.1046C33.1399 80.0467 36.2939 80.0467 38.2361 78.1046L47.8224 68.5183C48.5371 67.8036 49.0964 66.949 49.4693 66.0168L51.7222 60.3924L45.3986 53.494C45.0102 53.0745 44.6529 52.6239 44.311 52.1578V52.1422ZM34.7247 42.587C33.5283 41.9033 32.0213 42.3073 31.3221 43.5037L26.3502 52.1112L17.8981 47.2325C15.5209 45.8653 12.4757 46.6732 11.1084 49.0504L1.16473 66.2809C-0.202527 68.6581 0.605398 71.7033 2.98256 73.0706L11.5901 78.0424C13.9672 79.4097 17.0125 78.6018 18.3797 76.2246L28.3234 58.9941C28.5565 58.5901 28.7274 58.1861 28.8362 57.7511L35.6414 45.9896C36.325 44.7932 35.921 43.2861 34.7247 42.587Z" fill="white"/>
</svg>
